Coordinates
version=1
nRows=8
nColumns=46
inDegrees=yes

Units are S.I. units (second, meters, Newtons, ...)
Angles are in degrees.

endheader
time	pelvis_tilt	pelvis_list	pelvis_rotation	pelvis_tx	pelvis_ty	pelvis_tz	bb_angle	bb_tx	bb_ty	bb_tz	hip_flexion_r	hip_adduction_r	hip_rotation_r	knee_angle_r	knee_angle_r_beta	ankle_angle_r	subtalar_angle_r	mtp_angle_r	crank_angle_r	hip_flexion_l	hip_adduction_l	hip_rotation_l	knee_angle_l	knee_angle_l_beta	ankle_angle_l	subtalar_angle_l	mtp_angle_l	crank_angle_l	lumbar_extension	lumbar_bending	lumbar_rotation	arm_flex_r	arm_add_r	arm_rot_r	elbow_flex_r	pro_sup_r	wrist_flex_r	wrist_dev_r	arm_flex_l	arm_add_l	arm_rot_l	elbow_flex_l	pro_sup_l	wrist_flex_l	wrist_dev_l
      5.00000000	    -16.85156427	     -0.36866451	      9.47518808	      0.11603808	      1.10608516	     -0.26146654	      0.00000000	      0.50000000	      0.00000000	      0.25000000	     62.26251280	     -9.40036070	     -0.97428255	     81.36294069	      1.42005120	    -33.88528241	    -21.39988639	      0.00000000	      0.00000000	     72.84382239	      4.95883334	      5.21764099	     66.06258782	      1.15300967	      8.32041034	    -11.18060725	      0.00000000	      0.00000000	    -59.08095599	      2.60317529	     -5.47514752	     89.70344861	     -7.71714280	     31.48227148	     33.99927697	     25.68937641	      0.00000000	      0.00000000	     89.57853543	     -8.03169023	     34.45061467	     44.95524510	     30.05013020	      0.00000000	      0.00000000
      5.00500000	    -16.52371670	     -0.68439302	      9.38544215	      0.11643282	      1.10591369	     -0.26205496	      0.00000000	      0.50000000	      0.00000000	      0.25000000	     63.19259824	     -9.13019423	     -0.83879673	     83.67826622	      1.46046126	    -33.35152367	    -21.21129685	      0.00000000	      0.00000000	     71.02973905	      4.75501955	      5.66915621	     63.67621024	      1.11135952	      7.29413694	    -11.41646012	      0.00000000	      0.00000000	    -59.34403237	      2.78946329	     -5.09866286	     89.70373757	     -7.88435649	     31.44017432	     34.15239402	     25.62197780	      0.00000000	      0.00000000	     89.58111006	     -7.99654581	     34.62896502	     44.98152818	     30.00496451	      0.00000000	      0.00000000
      5.01000000	    -16.34118195	     -1.31062922	      9.17566533	      0.11678394	      1.10539532	     -0.26226785	      0.00000000	      0.50000000	      0.00000000	      0.25000000	     64.29432166	     -8.49571079	     -0.88857360	     85.89730835	      1.49919085	    -32.91311141	    -21.28365339	      0.00000000	      0.00000000	     69.46478129	      4.19330330	      6.29397021	     61.42098705	      1.07199845	      6.49368468	    -11.06663383	      0.00000000	      0.00000000	    -59.42450976	      3.08172309	     -4.52567027	     89.70328570	     -7.85861090	     31.45910471	     34.24494837	     25.60343423	      0.00000000	      0.00000000	     89.57333576	     -8.13239000	     34.63499625	     44.99505171	     29.98360547	      0.00000000	      0.00000000
      5.01500000	    -16.01146865	     -1.65093964	      9.05931158	      0.11720060	      1.10525678	     -0.26290280	      0.00000000	      0.50000000	      0.00000000	      0.25000000	     65.23818065	     -8.19904619	     -0.73306628	     88.20651477	      1.53949410	    -31.73406339	    -20.62377871	      0.00000000	      0.00000000	     67.60071840	      3.91551084	      6.73986659	     59.02532741	      1.03018631	      5.27288176	    -11.61170739	      0.00000000	      0.00000000	    -59.72475712	      3.26492406	     -4.11969780	     89.69895917	     -8.02255741	     31.34345856	     34.54297688	     25.82402127	      0.00000000	      0.00000000	     89.57696295	     -8.18477147	     34.84986578	     44.99847520	     30.13550814	      0.00000000	      0.00000000
      5.02000000	    -15.76667119	     -2.11541835	      8.85426902	      0.11765160	      1.10498078	     -0.26337650	      0.00000000	      0.50000000	      0.00000000	      0.25000000	     66.29697177	     -7.71866480	     -0.68022185	     90.40749012	      1.57790837	    -30.74062664	    -20.34437518	      0.00000000	      0.00000000	     65.86280069	      3.38284642	      7.14448281	     56.70377205	      0.98966752	      4.29482432	    -11.46591681	      0.00000000	      0.00000000	    -59.90263019	      3.45907150	     -3.63023305	     89.70025680	     -8.04481579	     31.28520482	     34.53219094	     26.16216536	      0.00000000	      0.00000000	     89.57450498	     -8.27805138	     35.03241186	     44.92655182	     30.41753325	      0.00000000	      0.00000000
      5.02500000	    -15.51427140	     -2.70106189	      8.76287519	      0.11783562	      1.10447503	     -0.26400371	      0.00000000	      0.50000000	      0.00000000	      0.25000000	     67.36838258	     -7.31099478	     -0.81833411	     92.62742816	      1.61665360	    -29.58413467	    -20.21703876	      0.00000000	      0.00000000	     64.20883940	      2.83700586	      7.61142786	     54.44756556	      0.95028929	      3.37499294	    -11.43866201	      0.00000000	      0.00000000	    -60.07831534	      3.82064656	     -3.09548821	     89.69902937	     -8.15443936	     31.20959022	     34.79873000	     26.34257586	      0.00000000	      0.00000000	     89.56434282	     -8.38996274	     34.99059207	     45.05742809	     30.52057392	      0.00000000	      0.00000000
      5.03000000	    -15.35046384	     -3.23132320	      8.48526231	      0.11821422	      1.10409235	     -0.26451619	      0.00000000	      0.50000000	      0.00000000	      0.25000000	     68.52325621	     -6.76559737	     -0.80483386	     94.72770025	      1.65331026	    -28.21375673	    -19.77138619	      0.00000000	      0.00000000	     62.58719932	      2.17582395	      7.99032688	     52.19642188	      0.91099942	      2.01389000	    -11.22678094	      0.00000000	      0.00000000	    -60.20791641	      4.02185837	     -2.53278335	     89.70089959	     -8.18005363	     31.07247388	     35.05179782	     26.83293055	      0.00000000	      0.00000000	     89.56155902	     -8.47740595	     34.99228946	     45.05856663	     30.92124280	      0.00000000	      0.00000000
      5.03500000	    -15.34374729	     -3.72610848	      8.19199662	      0.11857817	      1.10332685	     -0.26502385	      0.00000000	      0.50000000	      0.00000000	      0.25000000	     69.91340138	     -6.26939006	     -0.77961040	     96.86119067	      1.69054669	    -26.80050386	    -19.49897850	      0.00000000	      0.00000000	     61.13558905	      1.50147450	      8.16352351	     49.95361607	      0.87185507	      0.63515122	    -11.31749971	      0.00000000	      0.00000000	    -60.07894744	      4.16719065	     -2.06747507	     89.70016960	     -8.08277729	     31.26141649	     34.76334256	     27.26238013	      0.00000000	      0.00000000	     89.56502262	     -8.61831518	     35.34772309	     44.67049279	     31.29610021	      0.00000000	      0.00000000
